<svg width="80" height="80" viewBox="0 0 80 80" fill="none" xmlns="http://www.w3.org/2000/svg">
<g clip-path="url(#clip0_5920_1372)">
<path d="M11.4935 20.7177C11.503 20.7106 11.5124 20.7082 11.5218 20.7012L11.5206 20.6976L11.4935 20.7177Z" fill="#FFAB00" style="fill:#FFAB00;fill:color(display-p3 1.0000 0.6706 0.0000);fill-opacity:1;"/>
<path d="M18.0107 17.1587C16.1039 15.2518 14.0568 15.5736 12.4776 17.1528L10.2125 46.2149C10.2125 46.4906 10.2372 46.7629 10.2526 47.0375L26.5561 30.7339C19.7337 32.5147 21.7383 26.8189 19.3719 25.3458C19.3731 25.3446 21.987 21.135 18.0107 17.1587Z" fill="#FFAB00" style="fill:#FFAB00;fill:color(display-p3 1.0000 0.6706 0.0000);fill-opacity:1;"/>
<path d="M69.1404 35.29C67.8382 33.9878 65.7286 33.9878 64.4264 35.29L54.7909 44.9255L53.7196 43.6398L69.7297 27.6297C71.3572 26.0022 71.3572 23.3647 69.7297 21.7371C68.1021 20.1096 65.4646 20.1096 63.8371 21.7371L48.3597 37.2145L47.2885 35.9288L63.8371 19.3801C65.4646 17.7526 65.4646 15.1151 63.8371 13.4876C62.2096 11.86 59.5721 11.86 57.9445 13.4876L41.9274 29.5047L40.8561 28.219L53.062 16.0131C54.6035 14.4716 54.8981 11.959 53.5192 10.2714C51.9318 8.33039 49.0656 8.22433 47.3379 9.95203C47.0586 10.2313 10.2526 47.0374 10.2526 47.0374C10.4423 50.2913 11.8023 53.3766 14.1204 55.6948L26.714 68.2883C30.6196 72.1939 36.9506 72.1939 40.8561 68.2883L69.1404 40.0041C70.4427 38.7018 70.4427 36.5923 69.1404 35.29Z" fill="#FFAB00" style="fill:#FFAB00;fill:color(display-p3 1.0000 0.6706 0.0000);fill-opacity:1;"/>
<path d="M48.5165 14.6661C49.4928 15.6424 51.0757 15.6424 52.052 14.6661C53.0283 13.6898 53.0283 12.1069 52.052 11.1306C51.0757 10.1542 49.4928 10.1542 48.5165 11.1306C47.5401 12.1069 47.5401 13.6898 48.5165 14.6661Z" fill="white" style="fill:white;fill-opacity:1;"/>
<path d="M59.1231 18.2017C60.0994 19.178 61.6823 19.178 62.6586 18.2017C63.6349 17.2254 63.6349 15.6425 62.6586 14.6662C61.6823 13.6899 60.0994 13.6899 59.1231 14.6662C58.1468 15.6425 58.1468 17.2254 59.1231 18.2017Z" fill="white" style="fill:white;fill-opacity:1;"/>
<path d="M65.0156 26.4512C65.9919 27.4276 67.5748 27.4276 68.5512 26.4512C69.5275 25.4749 69.5275 23.892 68.5512 22.9157C67.5748 21.9394 65.9919 21.9394 65.0156 22.9157C64.0393 23.892 64.0393 25.4749 65.0156 26.4512Z" fill="white" style="fill:white;fill-opacity:1;"/>
<path d="M65.6049 38.8256C66.2557 39.4764 67.311 39.4764 67.9619 38.8256C68.6128 38.1747 68.6128 37.1194 67.9619 36.4686C67.311 35.8177 66.2557 35.8177 65.6049 36.4686C64.954 37.1194 64.954 38.1747 65.6049 38.8256Z" fill="white" style="fill:white;fill-opacity:1;"/>
</g>
<defs>
<clipPath id="clip0_5920_1372">
<rect width="80" height="80" fill="white" style="fill:white;fill-opacity:1;"/>
</clipPath>
</defs>
</svg>
